<svg version="1.1" id="Calque_1" xmlns="http://www.w3.org/2000/svg" xmlns:xlink="http://www.w3.org/1999/xlink" x="0px" y="0px" style="enable-background:new 0 0 359.1 146.4;" xml:space="preserve" viewBox="47.07 12.92 258.43 110.58">
<style type="text/css">
	.st0{fill:#FFFFFF;}
</style>
<g>
	<path class="st0" d="M107,111.4c3.4,0.8,5,2,5,4.4c0,2.7-2.2,4.4-5.3,4.4c-2.4,0-4.5-0.8-6.3-2.5l1.1-1.3c1.6,1.5,3.2,2.2,5.3,2.2   c2.1,0,3.4-1.1,3.4-2.6c0-1.5-0.8-2.3-4-3c-3.6-0.8-5.2-1.9-5.2-4.5c0-2.5,2.1-4.2,5.1-4.2c2.3,0,3.9,0.6,5.4,1.9l-1,1.3   c-1.4-1.2-2.9-1.7-4.5-1.7c-2,0-3.3,1.1-3.3,2.5C102.8,109.9,103.6,110.7,107,111.4z"/>
	<path class="st0" d="M116.6,120h-1.7v-16.1h1.7v6.7c0.8-1.2,1.9-2.2,3.9-2.2c2.8,0,4.4,1.9,4.4,4.6v7.1h-1.7v-6.7   c0-2.1-1.1-3.4-3.2-3.4c-2,0-3.4,1.4-3.4,3.6V120z"/>
	<path class="st0" d="M128.7,110.7l-0.5-1.4c1.3-0.6,2.5-0.9,4.1-0.9c3.1,0,4.9,1.6,4.9,4.6v7h-1.6v-1.7c-0.8,1-2.1,2-4.1,2   c-2.1,0-4.3-1.2-4.3-3.6c0-2.4,2-3.7,4.9-3.7c1.5,0,2.5,0.2,3.5,0.5V113c0-2.1-1.3-3.1-3.4-3.1   C130.8,109.9,129.7,110.3,128.7,110.7z M128.9,116.6c0,1.5,1.3,2.3,2.9,2.3c2.1,0,3.8-1.3,3.8-3.1v-1.1c-0.8-0.2-2-0.5-3.4-0.5   C130.1,114.2,128.9,115.1,128.9,116.6z"/>
	<path class="st0" d="M150.4,120h-2l-4.1-5.3L142,117v3h-1.7v-16.1h1.7V115l6.2-6.4h2.1l-4.8,4.9L150.4,120z"/>
	<path class="st0" d="M152.5,106.1v-1.9h1.9v1.9H152.5z M152.6,120v-11.4h1.7V120H152.6z"/>
	<path class="st0" d="M159.5,120h-1.7v-11.4h1.7v2c0.8-1.2,1.9-2.2,3.9-2.2c2.8,0,4.4,1.9,4.4,4.6v7.1H166v-6.7   c0-2.1-1.1-3.4-3.2-3.4c-2,0-3.4,1.4-3.4,3.6V120z"/>
	<path class="st0" d="M175.9,123.5c-1.9,0-3.7-0.5-5.2-1.6l0.8-1.3c1.3,0.9,2.8,1.5,4.4,1.5c2.5,0,4.1-1.4,4.1-4.1v-1.3   c-1,1.3-2.4,2.4-4.5,2.4c-2.7,0-5.4-2-5.4-5.4c0-3.4,2.6-5.4,5.4-5.4c2.1,0,3.5,1.1,4.5,2.3v-2.1h1.7v9.4   C181.7,121.7,179.4,123.5,175.9,123.5z M175.9,109.8c-2.2,0-3.9,1.5-3.9,3.9c0,2.3,1.8,3.9,3.9,3.9c2.2,0,4.2-1.5,4.2-3.9   C180.1,111.3,178.1,109.8,175.9,109.8z"/>
	<path class="st0" d="M199.3,108.6h1.7V120h-1.7v-2c-0.8,1.2-1.9,2.2-3.9,2.2c-2.8,0-4.4-1.9-4.4-4.6v-7.1h1.7v6.7   c0,2.1,1.1,3.4,3.2,3.4c1.9,0,3.4-1.4,3.4-3.6V108.6z"/>
	<path class="st0" d="M210.4,120.2c-2.1,0-3.5-1.1-4.4-2.4v5.7h-1.7v-14.9h1.7v2.3c0.9-1.4,2.3-2.5,4.4-2.5c2.7,0,5.5,2.2,5.5,5.9   C215.9,118,213.2,120.2,210.4,120.2z M210.1,109.8c-2.1,0-4.1,1.8-4.1,4.4c0,2.7,2,4.4,4.1,4.4c2.2,0,4-1.6,4-4.4   C214.1,111.6,212.3,109.8,210.1,109.8z"/>
	<path class="st0" d="M236.1,117.7l3-9.2h1.8l-4,11.5h-1.5l-3.1-9l-3.1,9h-1.5l-4-11.5h1.8l3,9.2l3.1-9.2h1.4L236.1,117.7z"/>
	<path class="st0" d="M243.5,110.7l-0.5-1.4c1.3-0.6,2.5-0.9,4.1-0.9c3.1,0,4.9,1.6,4.9,4.6v7h-1.6v-1.7c-0.8,1-2.1,2-4.1,2   c-2.1,0-4.3-1.2-4.3-3.6c0-2.4,2-3.7,4.9-3.7c1.5,0,2.5,0.2,3.5,0.5V113c0-2.1-1.3-3.1-3.4-3.1   C245.6,109.9,244.5,110.3,243.5,110.7z M243.7,116.6c0,1.5,1.3,2.3,2.9,2.3c2.1,0,3.8-1.3,3.8-3.1v-1.1c-0.8-0.2-2-0.5-3.4-0.5   C244.9,114.2,243.7,115.1,243.7,116.6z"/>
	<path class="st0" d="M257.3,116.7c0,1.4,0.8,1.9,1.9,1.9c0.6,0,1.1-0.1,1.7-0.4v1.5c-0.6,0.3-1.2,0.5-2.1,0.5   c-1.8,0-3.2-0.9-3.2-3.2v-6.9H254v-1.5h1.6v-3.4h1.7v3.4h3.6v1.5h-3.6V116.7z"/>
	<path class="st0" d="M268.2,118.7c1.6,0,2.7-0.6,3.6-1.6l1.1,0.9c-1.1,1.3-2.5,2.1-4.7,2.1c-3.1,0-5.7-2.4-5.7-6c0-3.3,2.3-6,5.5-6   c3.4,0,5.3,2.7,5.3,6c0,0.2,0,0.3,0,0.5h-9C264.4,117.4,266.2,118.7,268.2,118.7z M271.5,113.6c-0.2-2.1-1.4-3.9-3.6-3.9   c-2,0-3.5,1.7-3.7,3.9H271.5z"/>
	<path class="st0" d="M277.4,120h-1.7v-11.4h1.7v3c0.8-1.9,2.5-3.3,4.7-3.2v1.8H282c-2.5,0-4.5,1.8-4.5,5.2V120z"/>
</g>
<g>
	<g>
		<g>
			<path class="st0" d="M293.1,69.2v-5.3c0-1.5,0.5-2.7,1.2-3.5c0.6-0.6,1.4-0.9,2.4-0.9h0c2,0,3.2,1.4,3.6,3.3l5-3.8v1.7l-4.8,3.5     v3.5h4.8v1.4H293.1z M299.3,64c0-1.8-0.9-3.1-2.5-3.1h0c-1.5,0-2.4,1.2-2.4,3.1v3.8h5V64z"/>
			<path class="st0" d="M299.2,84L299.2,84c-3.4,0-6.4-2.5-6.4-6.1c0-2.1,0.6-3.3,1.6-4.6l1,0.9c-0.8,0.9-1.4,2-1.4,3.7     c0,2.7,2.3,4.6,5,4.6h0c2.9,0,5.1-1.9,5.1-4.8c0-1.4-0.5-2.7-1.2-3.5h-3v3.7h-1.2v-5h4.9c1,1.1,1.9,2.8,1.9,4.9     C305.5,81.6,302.7,84,299.2,84z"/>
			<path class="st0" d="M299.2,56.5L299.2,56.5c-3.4,0-6.4-2.5-6.4-6.3c0-3.7,2.9-6.2,6.3-6.2h0c3.4,0,6.3,2.5,6.3,6.3     C305.5,54,302.6,56.5,299.2,56.5z M299.2,45.4L299.2,45.4c-2.8,0-5.1,2-5.1,4.8c0,2.8,2.2,4.8,5,4.8h0c2.8,0,5-2,5-4.8     C304.3,47.4,302,45.4,299.2,45.4z"/>
			<path class="st0" d="M300.2,40.7h-7.1v-1.4h7c2.6,0,4.1-1.4,4.1-3.7c0-2.3-1.4-3.7-4-3.7h-7.1v-1.4h7c3.6,0,5.4,2,5.4,5.1     C305.5,38.6,303.7,40.7,300.2,40.7z"/>
			<path class="st0" d="M293.1,26.7v-4.6c0-2.8,1.5-4.6,3.9-4.6h0c2.6,0,4,2.2,4,4.8v3h4.3v1.4H293.1z M299.7,22.2     c0-2-1.1-3.4-2.7-3.4h0c-1.7,0-2.7,1.3-2.7,3.3v3.1h5.4V22.2z"/>
		</g>
	</g>
	<path class="st0" d="M219.9,44.2h-25V27.7h29.2c0.1,0,0.2,0,0.4,0c6.8,0,6.5-9.6,6.4-10.2h-46.2V84H195V54.5h25V44.2z"/>
	<path class="st0" d="M249.9,17.3L217.9,84h10.7l7.4-15.4h27.8l5.2,11c0.7,1.2,3.2,4.4,8.1,4.5h4.8L249.9,17.3z M240.2,59.8   l7.1-14.8l2.7-5.8l2.7,5.8l7.1,14.8H240.2z"/>
	<path class="st0" d="M142.4,27.9c2-0.6,4.2-0.8,6.5-0.8c2.3,0,4.5,0.3,6.5,0.8c5.3,1.5,7.9,4.3,7.9,8.1h10.2   c0-4.4-1.5-8.2-4.4-11.3c-2.6-2.8-6.2-4.9-10.8-6.2c-3-0.9-6.2-1.3-9.4-1.3c-3.3,0-6.4,0.4-9.4,1.3c-4.6,1.3-8.2,3.4-10.8,6.2   c-2.9,3.1-4.4,6.9-4.4,11.3c0,6.1,2.4,10.7,7.3,13.8c2.9,1.8,8.3,3.7,16.1,5.5c5.2,1.2,8.8,2.3,10.7,3.3c3.3,1.6,4.9,3.8,4.9,6.5   c0,3.9-2.6,6.6-7.9,8.1c-2,0.6-4.2,0.9-6.5,0.9c-2.3,0-4.5-0.3-6.5-0.9c-2.7-0.8-4.8-1.9-6.1-3.3c-0.2-0.1-0.3-0.3-0.5-0.5   c-4.5-4.3-10.3-3.9-11.5-3.8c0.1,4.2,1.6,7.8,4.4,10.8c2.7,2.8,6.3,4.9,10.8,6.2c3,0.9,6.2,1.3,9.4,1.3c3.3,0,6.4-0.4,9.4-1.3   c4.5-1.3,8.1-3.4,10.8-6.2c2.9-3.1,4.4-6.9,4.4-11.3c0-6.1-2.4-10.7-7.3-13.8c-3-1.9-8.3-3.7-16.1-5.5c-5.2-1.2-8.8-2.3-10.7-3.3   c-3.3-1.6-4.9-3.8-4.9-6.5C134.6,32.2,137.2,29.5,142.4,27.9z"/>
</g>
<path class="st0" d="M77.2,13.9C62.4,8.5,47,26.5,47.1,40.5c0.1,14.8,21.7,35.9,21.7,35.9c-3.8-23,7.4-31.3,12.7-37  C88.9,31.2,88.8,18,77.2,13.9z"/>
<g>
	<path class="st0" d="M92.8,26.9c-0.7,8.2-5,13.4-9.5,19c-3.3,4-6.7,8.1-8.6,13.5c-2.2,6.3-2.1,12.8,0.5,17.3c2,3.5,5.2,5.8,9.7,6.8   c1.3,0.3,2.6,0.4,4,0.4c5.3,0,10.4-2.3,14.4-6.5c4.7-5,7.2-11.9,6.8-19.1C109.3,45.4,95.1,29.4,92.8,26.9z M99.7,74.1   c-3.1,3.2-6.9,5-10.9,5c-1,0-1.9-0.1-2.9-0.3c-3.1-0.7-5.3-2.1-6.5-4.4c-1.8-3.3-1.9-8.4-0.1-13.4c1.6-4.6,4.6-8.2,7.8-12.1   c2.8-3.4,5.8-7,7.9-11.4l0.1-0.3l0.2,0.3c4.3,5.8,9.6,14.2,9.9,21.2C105.5,64.4,103.5,70.1,99.7,74.1z"/>
</g>
</svg>